<svg width="24" height="24" viewBox="0 0 24 24" fill="none" xmlns="http://www.w3.org/2000/svg">
<path d="M9.18886 12.5985L10.1168 12.9712C10.2643 12.6039 10.1814 12.1843 9.90524 11.9008L9.18886 12.5985ZM12.4931 9.23675L11.7903 9.94814C12.0781 10.2325 12.509 10.3154 12.8818 10.1581L12.4931 9.23675ZM6.55534 3.37071L7.25814 2.65932C7.0928 2.49598 6.87573 2.39533 6.64423 2.37467L6.55534 3.37071ZM3.08008 3.06055L3.16897 2.06451C2.87598 2.03836 2.58634 2.14253 2.37713 2.34931C2.16791 2.55608 2.06035 2.84449 2.08306 3.13776L3.08008 3.06055ZM3.36441 6.73195L2.3674 6.80916C2.40466 7.29024 2.78013 7.67611 3.26001 7.72648L3.36441 6.73195ZM5.52788 6.95907L6.52788 6.95907C6.52788 6.4472 6.14136 6.01798 5.63229 5.96454L5.52788 6.95907ZM5.52788 8.89541H4.52788C4.52788 9.40776 4.91511 9.83723 5.42473 9.89008L5.52788 8.89541ZM7.51006 9.10098L8.50847 9.04472C8.48085 8.55457 8.10152 8.15696 7.61321 8.10632L7.51006 9.10098ZM7.61615 10.9837L6.61774 11.04C6.63131 11.2808 6.73148 11.5086 6.89977 11.6814L7.61615 10.9837ZM9.7501 14.8785C9.7501 14.2025 9.88059 13.5593 10.1168 12.9712L8.26091 12.2258C7.9311 13.0469 7.7501 13.9428 7.7501 14.8785H9.7501ZM14.8709 19.9993C12.0428 19.9993 9.7501 17.7066 9.7501 14.8785H7.7501C7.7501 18.8112 10.9382 21.9993 14.8709 21.9993V19.9993ZM19.9917 14.8785C19.9917 17.7066 17.699 19.9993 14.8709 19.9993V21.9993C18.8036 21.9993 21.9917 18.8112 21.9917 14.8785H19.9917ZM14.8709 9.75771C17.699 9.75771 19.9917 12.0504 19.9917 14.8785H21.9917C21.9917 10.9458 18.8036 7.75771 14.8709 7.75771V9.75771ZM12.8818 10.1581C13.4921 9.90057 14.1635 9.75771 14.8709 9.75771V7.75771C13.8916 7.75771 12.9561 7.95594 12.1043 8.31542L12.8818 10.1581ZM13.1959 8.52536L7.25814 2.65932L5.85254 4.0821L11.7903 9.94814L13.1959 8.52536ZM6.64423 2.37467L3.16897 2.06451L2.99118 4.05659L6.46644 4.36675L6.64423 2.37467ZM2.08306 3.13776L2.3674 6.80916L4.36143 6.65473L4.07709 2.98333L2.08306 3.13776ZM3.26001 7.72648L5.42347 7.9536L5.63229 5.96454L3.46882 5.73741L3.26001 7.72648ZM4.52788 6.95907L4.52788 8.89541H6.52788L6.52788 6.95907L4.52788 6.95907ZM5.42473 9.89008L7.4069 10.0956L7.61321 8.10632L5.63103 7.90075L5.42473 9.89008ZM6.51164 9.15725L6.61774 11.04L8.61457 10.9274L8.50847 9.04472L6.51164 9.15725ZM6.89977 11.6814L8.47248 13.2962L9.90524 11.9008L8.33253 10.286L6.89977 11.6814Z" fill="#A2A7AA"/>
<rect x="14.4688" y="14.5137" width="3" height="3" rx="1.5" fill="#A2A7AA"/>
</svg>
