<svg width="16" height="16" viewBox="0 0 16 16" fill="none" xmlns="http://www.w3.org/2000/svg">
<path d="M9.33317 2.66675C8.96498 2.66675 8.6665 2.96522 8.6665 3.33341C8.6665 3.7016 8.96498 4.00008 9.33317 4.00008H11.0235L7.29582 7.72775C7.03547 7.9881 7.03547 8.41021 7.29582 8.67056C7.55617 8.93091 7.97828 8.93091 8.23863 8.67056L11.9998 4.90935V6.66675C11.9998 7.03494 12.2983 7.33341 12.6665 7.33341C13.0347 7.33341 13.3332 7.03494 13.3332 6.66675V3.33341C13.3332 2.96522 13.0347 2.66675 12.6665 2.66675H9.33317Z" fill="#2362AF"/>
<path d="M2.68005 3.86572C2.74221 3.56194 3.011 3.33341 3.33317 3.33341C3.33309 3.33341 3.33325 3.33341 3.33317 3.33341H5.99984C6.36803 3.33341 6.6665 3.63189 6.6665 4.00008C6.6665 4.36827 6.36803 4.66675 5.99984 4.66675H3.99984L3.99984 12.0001H11.3332V10.0001C11.3332 9.63189 11.6316 9.33341 11.9998 9.33341C12.368 9.33341 12.6665 9.63189 12.6665 10.0001V12.6667C12.6665 13.0349 12.368 13.3334 11.9998 13.3334H3.33317C3.31016 13.3334 3.28742 13.3322 3.26501 13.33C2.92884 13.2958 2.6665 13.0119 2.6665 12.6667V4.00008C2.6665 3.95406 2.67117 3.90912 2.68005 3.86572Z" fill="#2362AF"/>
</svg>
