<svg width="16" height="20" viewBox="0 0 16 20" fill="none" xmlns="http://www.w3.org/2000/svg">
<path d="M8.12103 2C11.6046 2 14.2876 5.0737 13.8169 8.52534C13.6712 9.59404 13.2278 10.6002 12.5372 11.4288L7.998 16.8759L3.45875 11.4288C2.76825 10.6002 2.32479 9.59404 2.17905 8.52534C1.70837 5.0737 4.39138 2 7.87496 2H8.12103ZM7.87496 0C3.17941 0 -0.43704 4.14306 0.197392 8.79556C0.393827 10.2361 0.991571 11.5923 1.92231 12.7092L7.66658 19.6023C7.83906 19.8093 8.15694 19.8093 8.32941 19.6023L14.0737 12.7092C15.0044 11.5923 15.6022 10.2361 15.7986 8.79556C16.433 4.14306 12.8166 0 8.12103 0H7.87496Z" fill="#A2A7AA"/>
<path d="M6.498 7.74306C6.498 6.91463 7.16957 6.24306 7.998 6.24306C8.82642 6.24306 9.498 6.91463 9.498 7.74306C9.498 8.57148 8.82642 9.24306 7.998 9.24306C7.16957 9.24306 6.498 8.57148 6.498 7.74306Z" fill="#A2A7AA"/>
</svg>
