<svg width="24" height="24" viewBox="0 0 24 24" fill="none" xmlns="http://www.w3.org/2000/svg">
<path d="M12 1C12.5523 1 13 1.44772 13 2V4H14.7917C17.1159 4 19 5.88413 19 8.20833H17C17 6.9887 16.0113 6 14.7917 6H13V10H11V6H9.5C8.11929 6 7 7.11929 7 8.5C7 9.88071 8.11929 11 9.5 11H14.5C16.9853 11 19 13.0147 19 15.5C19 17.9853 16.9853 20 14.5 20H13V22C13 22.5523 12.5523 23 12 23C11.4477 23 11 22.5523 11 22V20H9.20833C6.88414 20 5 18.1159 5 15.7917H7C7 17.0113 7.9887 18 9.20833 18H11L11 14H13V18H14.5C15.8807 18 17 16.8807 17 15.5C17 14.1193 15.8807 13 14.5 13H9.5C7.01472 13 5 10.9853 5 8.5C5 6.01472 7.01472 4 9.5 4H11V2C11 1.44772 11.4477 1 12 1Z" fill="#A2A7AA"/>
</svg>
