<svg width="14" height="14" viewBox="0 0 14 14" fill="none" xmlns="http://www.w3.org/2000/svg">
<path d="M7.00016 1.66668C5.58568 1.66668 4.22912 2.22858 3.22893 3.22877C2.22873 4.22897 1.66683 5.58552 1.66683 7.00001C1.66683 7.70039 1.80478 8.39392 2.07281 9.04099C2.34083 9.68806 2.73368 10.276 3.22893 10.7712C3.72417 11.2665 4.31212 11.6593 4.95918 11.9274C5.60625 12.1954 6.29978 12.3333 7.00016 12.3333C7.70055 12.3333 8.39407 12.1954 9.04114 11.9274C9.68821 11.6593 10.2762 11.2665 10.7714 10.7712C11.2666 10.276 11.6595 9.68806 11.9275 9.04099C12.1955 8.39392 12.3335 7.70039 12.3335 7.00001C12.3335 5.58552 11.7716 4.22897 10.7714 3.22877C9.7712 2.22858 8.41465 1.66668 7.00016 1.66668ZM2.28612 2.28597C3.53636 1.03572 5.23205 0.333344 7.00016 0.333344C8.76827 0.333344 10.464 1.03572 11.7142 2.28597C12.9644 3.53621 13.6668 5.2319 13.6668 7.00001C13.6668 7.87549 13.4944 8.7424 13.1594 9.55123C12.8243 10.3601 12.3333 11.095 11.7142 11.7141C11.0952 12.3331 10.3602 12.8242 9.55139 13.1592C8.74255 13.4942 7.87564 13.6667 7.00016 13.6667C6.12468 13.6667 5.25778 13.4942 4.44894 13.1592C3.6401 12.8242 2.90517 12.3331 2.28612 11.7141C1.66706 11.095 1.176 10.3601 0.840966 9.55123C0.505934 8.7424 0.333496 7.87549 0.333496 7.00001C0.333496 5.2319 1.03587 3.53621 2.28612 2.28597Z" fill="#848484"/>
<path d="M6.58311 7.52014C6.43092 7.39796 6.3335 7.21036 6.3335 7.00001V4.33334C6.3335 3.96515 6.63197 3.66668 7.00016 3.66668C7.36835 3.66668 7.66683 3.96515 7.66683 4.33334V6.72387L9.75488 8.81192C10.0152 9.07227 10.0152 9.49438 9.75489 9.75473C9.49454 10.0151 9.07243 10.0151 8.81208 9.75473L6.63205 7.57471C6.61456 7.55722 6.59825 7.539 6.58311 7.52014Z" fill="#848484"/>
</svg>
