<svg width="24" height="24" viewBox="0 0 24 24" fill="none" xmlns="http://www.w3.org/2000/svg">
<path d="M12.669 3.94811C12.2887 3.60584 11.7113 3.60584 11.331 3.94811L5 9.64605V19.0007H11C11.5523 19.0007 12 19.4484 12 20.0007C12 20.553 11.5523 21.0007 11 21.0007H5C3.89543 21.0007 3 20.1053 3 19.0007V11.4461L2.66897 11.744C2.25846 12.1134 1.62617 12.0802 1.25671 11.6696C0.887255 11.2591 0.920534 10.6268 1.33104 10.2574L9.99311 2.46152C11.134 1.4347 12.866 1.4347 14.0069 2.46152L22.669 10.2574C23.0795 10.6268 23.1128 11.2591 22.7433 11.6696C22.3738 12.0802 21.7416 12.1134 21.331 11.744L12.669 3.94811Z" fill="#A2A7AA"/>
<path d="M12 8.60132C10.9698 8.60132 10.1347 9.43642 10.1347 10.4666C10.1347 11.4967 10.9698 12.3318 12 12.3318C13.0301 12.3318 13.8653 11.4967 13.8653 10.4666C13.8653 9.43642 13.0301 8.60132 12 8.60132Z" fill="#A2A7AA"/>
<path d="M18.2428 13.4159C18.6333 13.0254 19.2665 13.0254 19.657 13.4159L21.9314 15.6903C22.5172 16.2761 22.5172 17.2259 21.9314 17.8116L19.657 20.086C19.2665 20.4765 18.6333 20.4765 18.2428 20.086C17.8523 19.6955 17.8523 19.0623 18.2428 18.6718L19.1636 17.751H14.2502C13.698 17.751 13.2502 17.3033 13.2502 16.751C13.2502 16.1987 13.698 15.751 14.2502 15.751H19.1636L18.2428 14.8302C17.8523 14.4396 17.8523 13.8065 18.2428 13.4159Z" fill="#A2A7AA"/>
</svg>
